<svg width="44" height="16" viewBox="0 0 44 16" fill="none" xmlns="http://www.w3.org/2000/svg">
<path d="M11.96 11.76H4.96L3.58 15H0.9L7.2 0.999999H9.76L16.08 15H13.36L11.96 11.76ZM11.1 9.72L8.46 3.6L5.84 9.72H11.1Z" fill="#292C34"/>
<path d="M22.4205 15.14C21.3405 15.14 20.3671 14.9067 19.5005 14.44C18.6338 13.9733 17.9538 13.3267 17.4605 12.5C16.9805 11.66 16.7405 10.7133 16.7405 9.66C16.7405 8.60667 16.9805 7.66667 17.4605 6.84C17.9538 6.01333 18.6338 5.36667 19.5005 4.9C20.3671 4.43333 21.3405 4.2 22.4205 4.2C23.5138 4.2 24.4938 4.43333 25.3605 4.9C26.2271 5.36667 26.9005 6.01333 27.3805 6.84C27.8738 7.66667 28.1205 8.60667 28.1205 9.66C28.1205 10.7133 27.8738 11.66 27.3805 12.5C26.9005 13.3267 26.2271 13.9733 25.3605 14.44C24.4938 14.9067 23.5138 15.14 22.4205 15.14ZM22.4205 13C23.3405 13 24.1005 12.6933 24.7005 12.08C25.3005 11.4667 25.6005 10.66 25.6005 9.66C25.6005 8.66 25.3005 7.85333 24.7005 7.24C24.1005 6.62667 23.3405 6.32 22.4205 6.32C21.5005 6.32 20.7405 6.62667 20.1405 7.24C19.5538 7.85333 19.2605 8.66 19.2605 9.66C19.2605 10.66 19.5538 11.4667 20.1405 12.08C20.7405 12.6933 21.5005 13 22.4205 13ZM30.5111 0.159999H33.0111V15H30.5111V0.159999ZM43.2397 14.42C42.9464 14.66 42.5864 14.84 42.1597 14.96C41.7464 15.08 41.3064 15.14 40.8397 15.14C39.6664 15.14 38.7597 14.8333 38.1197 14.22C37.4797 13.6067 37.1597 12.7133 37.1597 11.54V6.4H35.3997V4.4H37.1597V1.96H39.6597V4.4H42.5197V6.4H39.6597V11.48C39.6597 12 39.7864 12.4 40.0397 12.68C40.293 12.9467 40.6597 13.08 41.1397 13.08C41.6997 13.08 42.1664 12.9333 42.5397 12.64L43.2397 14.42Z" fill="white"/>
</svg>
